<svg width="183" height="75" viewBox="0 0 183 75" fill="none" xmlns="http://www.w3.org/2000/svg">
<path d="M34.726 13.3331C34.726 15.8931 32.6742 17.9805 30.1578 17.9805C27.6414 17.9805 25.5896 15.8931 25.5896 13.3331C25.5896 10.7731 27.6414 8.68573 30.1578 8.68573C32.6742 8.68573 34.726 10.7731 34.726 13.3331ZM10.7237 27.9448C11.1883 27.7085 11.5754 27.4328 11.9239 27.039C12.7368 26.2119 13.2014 25.1091 13.2788 23.967C13.3175 23.4156 13.2014 22.943 13.1627 22.3916C13.124 21.8402 13.2014 21.2494 13.3562 20.698C14.0144 18.4137 16.2985 16.9959 18.5825 17.3897C20.7505 17.7442 22.9571 16.5233 23.7314 14.4359C24.467 12.506 23.8475 10.2217 22.2216 8.96142C20.6343 7.70111 18.3503 7.70111 16.6856 8.88265C15.7952 9.55219 15.1371 10.5368 14.8661 11.6396C14.7499 12.191 14.7112 12.7423 14.7886 13.2937C14.8661 13.8057 14.9048 14.3177 14.8661 14.8691C14.5951 17.2322 12.582 19.0439 10.2592 19.0833C9.75591 19.0833 9.25264 18.9651 8.71065 18.9257C8.16866 18.9257 7.62668 19.0045 7.08469 19.2014C6.03943 19.5559 5.14903 20.3436 4.60704 21.2888C3.6005 23.0611 3.87149 25.3848 5.26517 26.8814C6.65885 28.4568 8.90422 28.8506 10.7237 27.9448ZM17.6534 19.8316C17.2276 20.0679 16.8017 20.3436 16.4533 20.698C15.679 21.4857 15.1758 22.5885 15.1371 23.7306C15.0983 24.2426 15.2145 24.7546 15.2532 25.2666C15.2919 25.818 15.2145 26.3694 15.0596 26.9208C14.4015 29.1263 12.1561 30.5442 9.94948 30.1503C7.82024 29.7959 5.69101 30.9774 4.91675 33.0648C4.1812 34.9553 4.80061 37.1608 6.42657 38.4211C8.01381 39.642 10.2205 39.6814 11.8464 38.4999C12.7368 37.8303 13.395 36.8851 13.6272 35.7823C13.7434 35.2703 13.7821 34.6796 13.7047 34.1676C13.6272 33.6556 13.5885 33.1436 13.6272 32.6316C13.8595 30.3079 15.8339 28.5356 18.118 28.5356C18.6213 28.5356 19.1245 28.6537 19.6278 28.6931C20.1698 28.6931 20.7118 28.6143 21.215 28.4174C22.2216 28.063 23.112 27.3146 23.654 26.3694C24.6605 24.6365 24.3895 22.3522 23.0346 20.8556C21.6409 19.359 19.4342 18.9257 17.6534 19.8316Z" fill="white"/>
<g filter="url(#filter0_d_52_39449)">
<path d="M38.664 44.769H32.2053V24.5857H38.664C44.9785 24.5857 48.8133 28.6224 48.8133 34.6774C48.8133 40.7035 44.9785 44.769 38.664 44.769ZM34.7138 26.8924V42.4624H38.664C43.5656 42.4624 46.2471 39.3772 46.2471 34.6774C46.2471 29.9487 43.5656 26.8924 38.664 26.8924H34.7138ZM58.1134 44.942C53.7019 44.942 50.8186 41.9145 50.8186 37.4165C50.8186 32.9474 53.6442 29.891 57.7962 29.891C61.9482 29.891 64.6586 32.5149 64.7739 36.8687C64.7739 37.1859 64.7451 37.5319 64.7162 37.8779H53.2982V38.0797C53.3847 40.8765 55.1436 42.8372 57.9404 42.8372C60.0164 42.8372 61.6311 41.7415 62.1212 39.8385H64.5144C63.9377 42.7795 61.5157 44.942 58.1134 44.942ZM53.4424 35.9172H62.2366C62.0059 33.3799 60.2759 31.967 57.8251 31.967C55.6626 31.967 53.6731 33.524 53.4424 35.9172ZM86.0405 34.6774C86.0405 40.617 82.0903 44.942 76.4102 44.942C70.73 44.942 66.7798 40.617 66.7798 34.6774C66.7798 28.7377 70.73 24.4127 76.4102 24.4127C82.0903 24.4127 86.0405 28.7377 86.0405 34.6774ZM69.346 34.6774C69.346 39.3195 72.2005 42.6354 76.4102 42.6354C80.6198 42.6354 83.4743 39.3195 83.4743 34.6774C83.4743 30.0352 80.6198 26.7194 76.4102 26.7194C72.2005 26.7194 69.346 30.0352 69.346 34.6774ZM95.9867 29.891C100.052 29.891 103.051 32.6302 103.051 37.4165C103.051 41.9145 100.052 44.942 95.9867 44.942C93.507 44.942 91.8347 43.9329 90.9408 42.52V50.5357H88.5765V30.064H90.6237L90.9408 32.4284C91.9212 31.0732 93.507 29.891 95.9867 29.891ZM95.756 42.8372C98.6682 42.8372 100.629 40.617 100.629 37.4165C100.629 34.216 98.6682 31.9959 95.756 31.9959C92.8727 31.9959 90.912 34.216 90.912 37.3589C90.912 40.5882 92.8727 42.8372 95.756 42.8372ZM106.391 40.9342V32.2265H103.738V30.064H106.391V25.9409H108.755V30.064H112.561V32.2265H108.755V40.9054C108.755 42.1452 109.188 42.6065 110.456 42.6065H112.792V44.769H110.226C107.4 44.769 106.391 43.5292 106.391 40.9342ZM115.763 27.5844C114.898 27.5844 114.235 26.95 114.235 26.0562C114.235 25.1624 114.898 24.528 115.763 24.528C116.628 24.528 117.292 25.1624 117.292 26.0562C117.292 26.95 116.628 27.5844 115.763 27.5844ZM114.552 44.769V30.064H116.917V44.769H114.552ZM136.274 29.891C139.33 29.891 141.838 31.6499 141.838 36.292V44.769H139.474V36.4362C139.474 33.5529 138.205 32.0535 135.985 32.0535C133.534 32.0535 132.035 33.8989 132.035 36.8975V44.769H129.671V36.4362C129.671 33.5529 128.373 32.0535 126.124 32.0535C123.702 32.0535 122.232 34.0719 122.232 37.0129V44.769H119.867V30.064H121.915L122.232 32.0824C123.01 31.0155 124.25 29.891 126.528 29.891C128.575 29.891 130.334 30.8137 131.17 32.6879C132.064 31.102 133.65 29.891 136.274 29.891ZM157.587 42.6065H158.336V44.769H157.039C155.078 44.769 154.415 43.9329 154.386 42.4912C153.464 43.8175 151.993 44.942 149.456 44.942C146.226 44.942 144.035 43.3274 144.035 40.6459C144.035 37.7049 146.082 36.0614 149.946 36.0614H154.271V35.0522C154.271 33.1492 152.916 31.9959 150.609 31.9959C148.533 31.9959 147.149 32.9762 146.861 34.4755H144.496C144.842 31.5922 147.178 29.891 150.724 29.891C154.473 29.891 156.635 31.7652 156.635 35.1964V41.6262C156.635 42.4047 156.924 42.6065 157.587 42.6065ZM154.271 38.7717V38.0509H149.715C147.61 38.0509 146.428 38.8294 146.428 40.5017C146.428 41.9434 147.668 42.9237 149.629 42.9237C152.57 42.9237 154.271 41.2225 154.271 38.7717Z" fill="white"/>
</g>
<defs>
<filter id="filter0_d_52_39449" x="8.17754" y="0.384819" width="174.187" height="74.1786" filterUnits="userSpaceOnUse" color-interpolation-filters="sRGB">
<feFlood flood-opacity="0" result="BackgroundImageFix"/>
<feColorMatrix in="SourceAlpha" type="matrix" values="0 0 0 0 0 0 0 0 0 0 0 0 0 0 0 0 0 0 127 0" result="hardAlpha"/>
<feOffset/>
<feGaussianBlur stdDeviation="12.0139"/>
<feComposite in2="hardAlpha" operator="out"/>
<feColorMatrix type="matrix" values="0 0 0 0 1 0 0 0 0 1 0 0 0 0 1 0 0 0 0.2 0"/>
<feBlend mode="normal" in2="BackgroundImageFix" result="effect1_dropShadow_52_39449"/>
<feBlend mode="normal" in="SourceGraphic" in2="effect1_dropShadow_52_39449" result="shape"/>
</filter>
</defs>
</svg>
